<svg width="786" height="658" viewBox="0 0 786 658" fill="none" xmlns="http://www.w3.org/2000/svg">
<g id="Mask group">
<g id="Friends3 1" clip-path="url(#clip0_2_53)">
<g id="menchating">
<path id="Vector" d="M785.771 178.752C785.771 182.686 785.645 186.604 785.393 190.475C783.952 212.847 778.299 234.746 768.73 255.021C768.651 255.193 768.572 255.367 768.494 255.524C768.054 256.468 767.597 257.397 767.125 258.325C752.604 287.505 730.391 312.167 702.884 329.651C675.376 347.134 643.617 356.776 611.032 357.535L612.81 459.248L635.862 447.1L639.984 454.937L612.983 469.146L616.114 648.559L616.272 658H598.6L598.774 648.559L604.139 357.552C580.525 357.215 557.213 352.19 535.557 342.768C513.901 333.346 494.333 319.715 477.99 302.667C476.857 301.503 475.756 300.307 474.655 299.111C474.607 299.064 474.575 299.016 474.544 298.985C460.92 284.135 449.902 267.09 441.956 248.569C442.129 248.774 442.318 248.947 442.491 249.151C424.532 207.164 423.312 159.898 439.081 117.041C454.85 74.1831 486.415 38.9799 527.305 18.6464C527.918 18.3475 528.563 18.0479 529.177 17.7336C569.622 -1.74749 615.911 -5.32113 658.867 7.72111C701.823 20.7633 738.311 49.4693 761.098 88.1488C762.184 89.9735 763.239 91.8467 764.245 93.7191C778.405 119.823 785.806 149.056 785.771 178.752Z" fill="#E5E5E5"/>
<path id="Vector_2" d="M319.614 497C380.642 497 430.114 486.703 430.114 474C430.114 461.297 380.642 451 319.614 451C258.587 451 209.114 461.297 209.114 474C209.114 486.703 258.587 497 319.614 497Z" fill="#CACACA"/>
<path id="Vector_3" d="M326.114 485.283H313.114V657.283H326.114V485.283Z" fill="#CACACA"/>
<path id="Vector_4" d="M395.6 463.118C396.303 461.736 397.29 460.519 398.496 459.545C399.702 458.571 401.1 457.864 402.599 457.468C404.097 457.072 405.663 456.998 407.192 457.249C408.722 457.5 410.181 458.072 411.474 458.927C411.882 459.199 412.27 459.5 412.637 459.826L460.36 448.525L463.88 436.845L482.918 439.97L479.027 459.59C478.551 461.94 477.331 464.074 475.546 465.676C473.761 467.278 471.508 468.261 469.12 468.481L415.129 473.236C414.964 473.556 414.782 473.868 414.584 474.169C413.729 475.462 412.611 476.56 411.302 477.391C409.993 478.221 408.524 478.766 406.99 478.989C405.455 479.212 403.892 479.109 402.4 478.685C400.909 478.262 399.524 477.528 398.336 476.532C397.99 476.244 397.663 475.934 397.356 475.605C395.823 473.952 394.833 471.869 394.519 469.637C394.205 467.404 394.582 465.129 395.6 463.118V463.118Z" fill="#FFB8B8"/>
<path id="Vector_5" d="M499.082 546.198H451.072C451.072 547.578 401.592 548.698 401.592 548.698C400.816 549.282 400.108 549.953 399.482 550.698C397.603 552.939 396.576 555.772 396.582 558.698V560.698C396.583 564.012 397.901 567.191 400.245 569.535C402.588 571.879 405.767 573.196 409.082 573.198H499.082C502.396 573.195 505.574 571.877 507.918 569.533C510.261 567.19 511.579 564.012 511.582 560.698V558.698C511.577 555.384 510.259 552.207 507.916 549.864C505.573 547.521 502.396 546.202 499.082 546.198Z" fill="#E4E4E4"/>
<path id="Vector_6" d="M459.858 572.701H446.858V656.701H459.858V572.701Z" fill="#E4E4E4"/>
<path id="Vector_7" d="M409.858 656.244C409.858 657.649 429.558 656.788 453.858 656.788C478.159 656.788 497.858 657.649 497.858 656.244C497.858 654.84 478.159 643.701 453.858 643.701C429.558 643.701 409.858 654.84 409.858 656.244Z" fill="#E4E4E4"/>
<path id="Vector_8" d="M422.594 645.399L410.335 645.398L404.502 613.601L422.596 613.602L422.594 645.399Z" fill="#FFB8B8"/>
<path id="Vector_9" d="M425.721 657.283L386.19 657.281V656.781C386.19 654.761 386.588 652.76 387.361 650.893C388.135 649.026 389.268 647.33 390.697 645.902C392.125 644.473 393.821 643.339 395.688 642.566C397.555 641.793 399.556 641.395 401.576 641.395H401.578L425.722 641.396L425.721 657.283Z" fill="#2F2E41"/>
<path id="Vector_10" d="M404.258 625.681L379.817 570.873C377.776 566.254 377.55 561.035 379.185 556.257C380.819 551.479 384.193 547.491 388.635 545.089L441.649 516.661L465.84 514.604L488.155 512.575L488.315 512.848C488.521 513.196 493.319 521.483 490.076 530.57C487.616 537.462 481.217 542.846 471.057 546.572C447.343 555.267 419.948 562.699 409.271 565.49C408.799 565.61 408.358 565.829 407.977 566.133C407.596 566.436 407.283 566.817 407.06 567.249C406.835 567.677 406.702 568.147 406.669 568.628C406.635 569.11 406.701 569.593 406.863 570.048L429.57 621.063C429.807 621.71 429.892 622.403 429.819 623.088C429.746 623.773 429.517 624.432 429.149 625.015C428.781 625.598 428.284 626.088 427.697 626.448C427.109 626.808 426.447 627.028 425.761 627.092L408.794 628.327C408.65 628.341 408.507 628.348 408.364 628.348C407.495 628.348 406.645 628.096 405.916 627.622C405.187 627.149 404.611 626.475 404.258 625.681V625.681Z" fill="#2F2E41"/>
<path id="Vector_11" d="M430.594 645.399L418.335 645.398L412.502 613.601L430.596 613.602L430.594 645.399Z" fill="#FFB8B8"/>
<path id="Vector_12" d="M433.721 657.283L394.19 657.281V656.781C394.19 654.761 394.588 652.76 395.361 650.893C396.135 649.026 397.268 647.33 398.697 645.902C400.125 644.473 401.821 643.339 403.688 642.566C405.555 641.793 407.556 641.395 409.576 641.395H409.578L433.722 641.396L433.721 657.283Z" fill="#2F2E41"/>
<path id="Vector_13" d="M413.258 628.681L388.817 573.873C386.776 569.254 386.55 564.035 388.185 559.257C389.819 554.479 393.193 550.491 397.635 548.089L450.649 519.661L474.84 517.604L492.318 516.088L492.315 515.848C492.521 516.196 497.319 524.483 494.076 533.57C491.616 540.462 490.217 545.846 480.057 549.572C456.343 558.267 428.948 565.699 418.271 568.49C417.799 568.61 417.358 568.829 416.977 569.133C416.596 569.436 416.283 569.817 416.06 570.249C415.835 570.677 415.702 571.147 415.669 571.628C415.635 572.11 415.701 572.593 415.863 573.048L438.57 624.063C438.807 624.71 438.892 625.403 438.819 626.088C438.746 626.773 438.517 627.432 438.149 628.015C437.781 628.598 437.284 629.088 436.697 629.448C436.109 629.808 435.447 630.028 434.761 630.092L417.794 631.327C417.65 631.341 417.507 631.348 417.364 631.348C416.495 631.348 415.645 631.096 414.916 630.622C414.187 630.149 413.611 629.475 413.258 628.681V628.681Z" fill="#2F2E41"/>
<path id="Vector_14" d="M459.318 517.088C458.146 516.259 441.318 525.088 438.318 518.088C452.318 483.088 442.67 467.974 451.246 447.903C452.756 444.442 455.032 441.367 457.901 438.911C460.771 436.455 464.16 434.682 467.813 433.724L490.062 432.601L490.178 432.656C495.198 435.115 499.293 439.127 501.854 444.097C504.416 449.066 505.307 454.729 504.397 460.245C504.318 482.088 491.249 498.747 495.818 514.591C496.01 515.253 496.066 515.947 495.983 516.632C495.9 517.316 495.679 517.977 495.334 518.574C495 519.151 494.551 519.654 494.016 520.051C493.48 520.448 492.868 520.731 492.219 520.883L462.84 516.964C462.154 517.128 461.441 517.143 460.748 517.009C460.056 516.875 459.4 516.594 458.824 516.187L459.318 517.088Z" fill="#E7F5FF"/>
<path id="Vector_15" d="M127.668 538.959H165.198C165.198 540.567 206.224 541.872 206.224 541.872C207.129 542.554 207.954 543.335 208.683 544.203C210.873 546.815 212.07 550.116 212.063 553.525V555.856C212.061 559.718 210.526 563.422 207.795 566.154C205.063 568.885 201.359 570.42 197.497 570.422H127.668C123.806 570.418 120.103 568.883 117.372 566.152C114.641 563.421 113.105 559.718 113.102 555.856V553.525C113.107 549.664 114.644 545.962 117.374 543.231C120.105 540.501 123.806 538.964 127.668 538.959V538.959Z" fill="#E4E4E4"/>
<path id="Vector_16" d="M170.109 569.843H154.96V657.283H170.109V569.843Z" fill="#E4E4E4"/>
<path id="Vector_17" d="M214.312 655.663C214.312 657.3 191.356 656.296 163.039 656.296C134.722 656.296 111.766 657.3 111.766 655.663C111.766 654.026 134.722 641.047 163.039 641.047C191.356 641.047 214.312 654.026 214.312 655.663Z" fill="#E4E4E4"/>
<path id="Vector_18" d="M224.488 645.672H235.762L241.126 602.185L224.486 602.186L224.488 645.672Z" fill="#9F616A"/>
<path id="Vector_19" d="M221.612 641.991L243.815 641.99H243.816C247.569 641.99 251.168 643.481 253.821 646.135C256.475 648.788 257.966 652.387 257.966 656.14V656.6L221.613 656.601L221.612 641.991Z" fill="#2F2E41"/>
<path id="Vector_20" d="M257.81 645.672H269.085L274.448 602.185L257.808 602.186L257.81 645.672Z" fill="#9F616A"/>
<path id="Vector_21" d="M254.934 641.991L277.138 641.99H277.139C280.891 641.99 284.49 643.481 287.144 646.135C289.797 648.788 291.288 652.387 291.288 656.14V656.6L254.935 656.601L254.934 641.991Z" fill="#2F2E41"/>
<path id="Vector_22" d="M218.57 508.041C218.413 506.797 217.986 505.603 217.318 504.543C216.65 503.483 215.757 502.582 214.703 501.904C213.65 501.226 212.46 500.788 211.218 500.619C209.976 500.451 208.713 500.557 207.516 500.929L194.968 485.887L183.968 491.283L201.986 512.276C202.745 514.245 204.2 515.866 206.075 516.834C207.95 517.801 210.115 518.047 212.159 517.525C214.204 517.003 215.985 515.749 217.167 514.001C218.348 512.253 218.848 510.132 218.57 508.041V508.041Z" fill="#9F616A"/>
<path id="Vector_23" d="M176.375 418.822L183.735 421.843L185.517 442.634L205.23 496.548L188.487 502.121L169.885 465.956L176.375 418.822Z" fill="#E4E4E4"/>
<path id="Vector_24" d="M125.09 510.023C125.09 510.023 118.513 544.804 143.539 549.233C168.565 553.662 204.69 556.774 204.69 556.774L220.913 632.464L242.708 630.518C242.708 630.518 239.809 539.405 232.681 532.276C225.553 525.148 191.659 504.288 191.659 504.288L125.09 510.023Z" fill="#2F2E41"/>
<path id="Vector_25" d="M173.968 495.447L184.913 506.427C184.913 506.427 263.943 519.157 266.992 537.41C271.595 564.968 277.032 624.896 277.032 624.896L253.27 623.113L243.953 554.992L205.935 546.344L162.681 522.772L173.968 495.447Z" fill="#2F2E41"/>
<path id="Vector_26" d="M173.359 411.248L167.001 402.819L146.384 402.481C139.953 405.904 134.574 411.012 130.823 417.257C127.072 423.503 125.09 430.651 125.09 437.936V491.272C125.09 491.272 125.383 498.37 123.831 514.668C122.492 528.731 197.331 506.427 197.331 506.427L187.615 427.276C187.615 427.276 188.396 414.668 173.359 411.248Z" fill="#E4E4E4"/>
<path id="Vector_27" d="M753 658H1C0.734784 658 0.480429 657.894 0.292892 657.707C0.105356 657.519 0 657.265 0 657C0 656.735 0.105356 656.48 0.292892 656.293C0.480429 656.105 0.734784 656 1 656H753C753.265 656 753.52 656.105 753.707 656.293C753.895 656.48 754 656.735 754 657C754 657.265 753.895 657.519 753.707 657.707C753.52 657.894 753.265 658 753 658Z" fill="#CACACA"/>
<path id="Vector_28" d="M470.927 476.353L446.578 459.796L458.021 443.589C459.541 441.437 461.772 439.891 464.321 439.225C466.869 438.559 469.572 438.816 471.95 439.949V439.949C474.355 441.096 476.272 443.065 477.353 445.501C478.434 447.936 478.608 450.678 477.844 453.232L470.927 476.353Z" fill="#E7F5FF"/>
<path id="Vector_29" d="M251.877 444.67C250.767 444.088 249.543 443.756 248.291 443.698C247.039 443.64 245.79 443.857 244.631 444.335C243.473 444.812 242.432 445.537 241.584 446.46C240.736 447.382 240.101 448.48 239.723 449.674L220.208 451.371L218.347 463.482L245.872 460.698C247.921 461.201 250.083 460.934 251.949 459.948C253.814 458.963 255.254 457.327 255.994 455.351C256.734 453.375 256.724 451.197 255.965 449.228C255.206 447.26 253.752 445.638 251.877 444.67H251.877Z" fill="#9F616A"/>
</g>
<g id="Leafright">
<path id="Vector_30" d="M42.2709 630.087C29.3307 639.734 25.6633 656.706 25.6633 656.706C25.6633 656.706 42.976 658.038 55.9162 648.392C68.8564 638.746 72.5237 621.774 72.5237 621.774C72.5237 621.774 55.211 620.441 42.2709 630.087Z" fill="#F1F1F1"/>
</g>
<g id="Leafleft">
<path id="Vector_31" d="M47.6612 634.616C41.442 649.51 25.8663 657.185 25.8663 657.185C25.8663 657.185 20.3738 640.712 26.593 625.819C32.8121 610.925 48.3878 603.25 48.3878 603.25C48.3878 603.25 53.8803 619.723 47.6612 634.616Z" fill="#F1F1F1"/>
</g>
<g id="Headright">
<path id="Vector_32" d="M482.637 424.29C496.202 424.29 507.198 413.294 507.198 399.729C507.198 386.165 496.202 375.168 482.637 375.168C469.072 375.168 458.076 386.165 458.076 399.729C458.076 413.294 469.072 424.29 482.637 424.29Z" fill="#FFB8B8"/>
<path id="Vector_33" d="M488.46 423.273C487.155 423.844 484.483 413.446 485.68 411.366C487.46 408.273 487.355 408.295 488.537 406.249C489.719 404.203 489.983 401.402 488.453 399.602C486.922 397.801 483.381 398.04 482.682 400.297C483.132 396.01 478.89 392.563 474.689 391.594C470.488 390.626 466.057 391.227 461.833 390.365C456.93 389.365 451.829 385.255 453.785 379.864C454.121 378.967 454.624 378.141 455.267 377.43C457.526 374.889 460.688 373.804 463.779 372.755C470.209 370.573 476.815 368.363 483.601 368.604C489.192 368.896 494.577 370.812 499.096 374.117C503.616 377.422 507.074 381.973 509.047 387.213C509.515 388.524 509.877 389.87 510.13 391.238C512.46 403.763 505.187 416.116 493.374 420.885L488.46 423.273Z" fill="#2F2E41"/>
</g>
<g id="Headleft">
<path id="Vector_34" d="M157.263 394.787C168.09 394.787 176.866 386.01 176.866 375.184C176.866 364.357 168.09 355.581 157.263 355.581C146.437 355.581 137.66 364.357 137.66 375.184C137.66 386.01 146.437 394.787 157.263 394.787Z" fill="#9F616A"/>
<path id="Vector_35" d="M154.248 366.062C154.248 366.062 155.108 354.153 165.721 359.009C176.333 363.865 175.641 350.48 172.434 348.115C169.227 345.75 169.328 345.165 157.598 346.747C145.869 348.33 123.096 351.011 130.46 374.596C137.823 398.181 148.667 392.041 148.667 392.041C148.667 392.041 138.639 370.89 144.569 374.934L150.5 378.977L153.629 378.314L154.248 366.062Z" fill="#2F2E41"/>
</g>
<g id="Handright">
<path id="Vector_36" d="M402.239 412.265V415.536C402.238 415.795 402.134 416.044 401.95 416.228C401.767 416.412 401.518 416.516 401.258 416.517H399.623C399.58 416.517 399.537 416.525 399.498 416.541C399.458 416.558 399.422 416.582 399.391 416.612C399.361 416.643 399.337 416.679 399.32 416.719C399.304 416.758 399.296 416.801 399.296 416.844V443.661C399.295 443.92 399.191 444.169 399.007 444.353C398.823 444.537 398.575 444.641 398.315 444.642H378.366C378.105 444.642 377.856 444.538 377.672 444.354C377.488 444.17 377.385 443.921 377.385 443.661V416.844C377.384 416.757 377.35 416.674 377.288 416.613C377.227 416.552 377.144 416.517 377.057 416.517H375.095C374.835 416.517 374.586 416.413 374.402 416.229C374.218 416.045 374.114 415.796 374.114 415.536V412.265C374.114 412.136 374.139 412.009 374.189 411.89C374.238 411.771 374.31 411.662 374.401 411.571C374.492 411.48 374.6 411.408 374.72 411.359C374.839 411.309 374.966 411.284 375.095 411.284H401.258C401.518 411.285 401.767 411.389 401.951 411.573C402.135 411.756 402.238 412.005 402.239 412.265Z" fill="#3F3D56"/>
<path id="Vector_37" d="M399.325 417.204H377.414V418.185H399.325V417.204Z" fill="#E7F5FF"/>
<path id="Vector_38" d="M399.296 431.64C395.783 433.15 392 433.929 388.177 433.929C384.353 433.929 380.57 433.15 377.057 431.64V424.729C384.272 422.305 392.081 422.305 399.296 424.729V431.64Z" fill="#E7F5FF"/>
<g id="handright">
<path id="Vector_39" d="M436.246 482.959L393.572 449.293C393.232 449.413 392.886 449.515 392.536 449.599C391.029 449.951 389.466 449.983 387.947 449.691C386.427 449.4 384.987 448.792 383.718 447.908C382.44 447.022 381.367 445.875 380.569 444.541C379.771 443.207 379.267 441.718 379.091 440.174C378.764 437.385 379.517 434.575 381.194 432.323C382.872 430.07 385.348 428.544 388.114 428.058C390.881 427.572 393.728 428.163 396.073 429.709C398.418 431.255 400.083 433.639 400.726 436.374C400.836 436.852 400.913 437.337 400.955 437.826L443.437 462.333L454.009 456.247L465.72 471.579L449.306 483.278C447.384 484.636 445.076 485.339 442.723 485.281C440.371 485.224 438.099 484.41 436.246 482.959V482.959Z" fill="#FFB8B8"/>
</g>
</g>
<g id="Smokeleft">
<path id="Vector_40" d="M386.213 403.435C385.344 397.578 385.114 391.645 385.528 385.738L386.213 375.964C382.438 383.474 383.291 393.359 386.213 403.435V403.435Z" fill="#E5E5E5"/>
<path id="Vector_41" d="M389.156 405.07C388.738 401.575 388.627 398.05 388.827 394.536L389.156 388.718C387.34 393.189 387.751 399.073 389.156 405.07Z" fill="#E5E5E5"/>

</g>
<g id='Smokeright'>
<path id="Vector_42" d="M251.213 425.435C250.344 419.578 250.114 413.645 250.528 407.738L251.213 397.964C247.438 405.474 248.291 415.359 251.213 425.435V425.435Z" fill="#E5E5E5"/>
<path id="Vector_43" d="M254.156 427.07C253.738 423.575 253.627 420.05 253.827 416.536L254.156 410.718C252.34 415.189 252.751 421.073 254.156 427.07Z" fill="#E5E5E5"/></g>
<g id="Handleft">
<path id="Vector_44" d="M267.239 434.265V437.536C267.238 437.795 267.134 438.044 266.95 438.228C266.767 438.412 266.518 438.516 266.258 438.517H264.623C264.58 438.517 264.537 438.525 264.498 438.541C264.458 438.558 264.422 438.582 264.391 438.612C264.361 438.643 264.337 438.679 264.321 438.719C264.304 438.758 264.296 438.801 264.296 438.844V465.661C264.295 465.92 264.191 466.169 264.007 466.353C263.823 466.537 263.575 466.641 263.315 466.642H243.366C243.106 466.642 242.856 466.538 242.672 466.354C242.488 466.17 242.385 465.921 242.385 465.661V438.844C242.384 438.757 242.35 438.674 242.288 438.613C242.227 438.552 242.144 438.517 242.058 438.517H240.095C239.835 438.517 239.586 438.413 239.402 438.229C239.218 438.045 239.114 437.796 239.114 437.536V434.265C239.114 434.136 239.139 434.009 239.189 433.89C239.238 433.771 239.31 433.662 239.401 433.571C239.492 433.48 239.601 433.408 239.72 433.359C239.839 433.309 239.966 433.284 240.095 433.284H266.258C266.518 433.285 266.767 433.389 266.951 433.573C267.135 433.756 267.238 434.005 267.239 434.265V434.265Z" fill="#3F3D56"/>
<path id="Vector_45" d="M264.296 453.64C260.783 455.15 257 455.929 253.177 455.929C249.353 455.929 245.57 455.15 242.057 453.64V446.729C249.272 444.305 257.081 444.305 264.296 446.729V453.64Z" fill="#E7F5FF"/>
<g id="handleft">
<path id="Vector_46" d="M135.306 426.907L129.786 431.025C129.786 431.025 126.723 438.437 132.726 448.276C138.728 458.116 176.765 478.859 176.765 478.859L238.35 463.132L229.574 445.915L184.7 447.17C184.7 447.17 159.326 415.541 135.306 426.907Z" fill="#E4E4E4"/>
</g>
</g>
</g>
</g>
<defs>
<clipPath id="clip0_2_53">
<rect width="785.771" height="658" fill="white"/>
</clipPath>
</defs>
</svg>
